<svg width="43" height="34" viewBox="0 0 43 34" fill="none" xmlns="http://www.w3.org/2000/svg">
<path fill-rule="evenodd" clip-rule="evenodd" d="M9.28223 28.5716L12.1394 25.3541H33.952C35.6089 25.3541 36.952 24.0109 36.952 22.3541V4.85718H39.0043C40.6612 4.85718 42.0043 6.20032 42.0043 7.85718V25.5922C42.0043 27.249 40.6612 28.5922 39.0044 28.5922H37.1062L36.2497 33.9999L31.4477 28.5922H9.63512C9.51573 28.5922 9.39797 28.5852 9.28223 28.5716Z" fill="black"/>
<path fill-rule="evenodd" clip-rule="evenodd" d="M0 3C0 1.34315 1.34315 0 3 0H32.3692C34.0261 0 35.3692 1.34315 35.3692 3V20.735C35.3692 22.3918 34.0261 23.735 32.3692 23.735H10.5567L5.75464 29.1428L4.89809 23.735H3C1.34314 23.735 0 22.3918 0 20.735V3ZM10.5 9.395V7.926H4.897V17H6.717V13.165H9.616V11.722H6.717V9.395H10.5ZM13.9226 17L14.5206 15.271H18.1346L18.7326 17H20.6566L17.3936 7.913H15.2746L12.0116 17H13.9226ZM16.3276 10.019L17.6406 13.815H15.0146L16.3276 10.019ZM28.0382 16.948L29.4162 18.599H31.6782L29.5982 16.259C30.1876 15.843 30.6512 15.3057 30.9892 14.647C31.3359 13.9797 31.5092 13.243 31.5092 12.437C31.5092 11.553 31.3012 10.76 30.8852 10.058C30.4779 9.34733 29.9189 8.79267 29.2082 8.394C28.5062 7.99533 27.7262 7.796 26.8682 7.796C26.0189 7.796 25.2389 7.99533 24.5282 8.394C23.8176 8.79267 23.2542 9.34733 22.8382 10.058C22.4222 10.76 22.2142 11.553 22.2142 12.437C22.2142 13.3297 22.4222 14.1313 22.8382 14.842C23.2542 15.544 23.8176 16.0943 24.5282 16.493C25.2389 16.8917 26.0189 17.091 26.8682 17.091C27.2669 17.091 27.6569 17.0433 28.0382 16.948ZM24.4372 14.036C24.2032 13.5767 24.0862 13.0437 24.0862 12.437C24.0862 11.8303 24.2032 11.3017 24.4372 10.851C24.6712 10.3917 24.9962 10.0407 25.4122 9.798C25.8369 9.55533 26.3222 9.434 26.8682 9.434C27.4142 9.434 27.8952 9.55533 28.3112 9.798C28.7272 10.0407 29.0522 10.3917 29.2862 10.851C29.5202 11.3017 29.6372 11.8303 29.6372 12.437C29.6372 13.0437 29.5202 13.5767 29.2862 14.036C29.0522 14.4953 28.7272 14.8507 28.3112 15.102C27.8952 15.3447 27.4142 15.466 26.8682 15.466C26.3222 15.466 25.8369 15.3447 25.4122 15.102C24.9962 14.8507 24.6712 14.4953 24.4372 14.036Z" fill="#353535"/>
</svg>
