<svg width="12" height="16" viewBox="0 0 12 16" fill="none" xmlns="http://www.w3.org/2000/svg">
<path fill-rule="evenodd" clip-rule="evenodd" d="M8.42787 1.83429C9.16248 2.79351 9.57517 4.09449 9.57517 5.45103H8.72937C8.72937 4.3874 8.40578 3.36733 7.8298 2.61523C7.25382 1.86313 6.47262 1.44061 5.65806 1.44061C4.84349 1.44061 4.06229 1.86313 3.48631 2.61523C2.91033 3.36733 2.58675 4.3874 2.58675 5.45103L1.74094 5.45103C1.74094 4.09449 2.15364 2.7935 2.88824 1.83429C3.62284 0.875065 4.61917 0.336182 5.65806 0.336182C6.69694 0.336182 7.69327 0.875066 8.42787 1.83429ZM2 5.45103C0.895431 5.45103 0 6.34646 0 7.45103V13.6807C0 14.7853 0.895432 15.6807 2 15.6807H9.31611C10.4207 15.6807 11.3161 14.7853 11.3161 13.6807V7.45103C11.3161 6.34646 10.4207 5.45103 9.31611 5.45103H2Z" fill="black" fill-opacity="0.75"/>
</svg>
