<svg width="13" height="15" viewBox="0 0 13 15" fill="none" xmlns="http://www.w3.org/2000/svg">
<path fill-rule="evenodd" clip-rule="evenodd" d="M6.29909 9.1923C8.71799 9.1923 10.6789 7.13453 10.6789 4.59615C10.6789 2.05777 8.71799 0 6.29909 0C3.88019 0 1.91928 2.05777 1.91928 4.59615C1.91928 7.13453 3.88019 9.1923 6.29909 9.1923ZM12.166 12.8882C12.4838 13.4458 12.6473 14.0435 12.6473 14.6471H6.32366H0C0 14.0435 0.163566 13.4458 0.48136 12.8882C0.799153 12.3306 1.26495 11.8239 1.85216 11.3971C2.43936 10.9703 3.13648 10.6318 3.9037 10.4008C4.67092 10.1698 5.49322 10.0509 6.32366 10.0509C7.15409 10.0509 7.9764 10.1698 8.74362 10.4008C9.51084 10.6318 10.208 10.9703 10.7952 11.3971C11.3824 11.8239 11.8482 12.3306 12.166 12.8882Z" fill="black" fill-opacity="0.75"/>
</svg>
